<svg width="40" height="40" viewBox="0 0 40 40" fill="none" xmlns="http://www.w3.org/2000/svg">
<path d="M28.334 3.33337H11.6673C7.06494 3.33337 3.33398 7.06433 3.33398 11.6667V28.3334C3.33398 32.9357 7.06494 36.6667 11.6673 36.6667H28.334C32.9364 36.6667 36.6673 32.9357 36.6673 28.3334V11.6667C36.6673 7.06433 32.9364 3.33337 28.334 3.33337Z" stroke="black" stroke-width="2" stroke-linecap="round" stroke-linejoin="round"/>
<path d="M26.6675 18.95C26.8732 20.3371 26.6362 21.7537 25.9904 22.9984C25.3446 24.243 24.3227 25.2524 23.0702 25.8828C21.8177 26.5132 20.3982 26.7327 19.0138 26.5099C17.6294 26.2871 16.3504 25.6335 15.3589 24.6419C14.3673 23.6504 13.7137 22.3715 13.4909 20.987C13.2682 19.6026 13.4876 18.1832 14.118 16.9306C14.7485 15.6781 15.7578 14.6562 17.0025 14.0104C18.2471 13.3646 19.6637 13.1277 21.0508 13.3333C22.4657 13.5432 23.7756 14.2025 24.787 15.2139C25.7984 16.2253 26.4577 17.5351 26.6675 18.95Z" stroke="black" stroke-width="2" stroke-linecap="round" stroke-linejoin="round"/>
<path d="M29.166 10.8334H29.1827" stroke="black" stroke-width="2" stroke-linecap="round" stroke-linejoin="round"/>
</svg>
