<svg width="40" height="40" viewBox="0 0 40 40" fill="none" xmlns="http://www.w3.org/2000/svg">
<path d="M38.3327 5.00004C36.7367 6.12583 34.9695 6.98688 33.0994 7.55004C32.0956 6.39589 30.7616 5.57786 29.2777 5.20658C27.7939 4.8353 26.2318 4.9287 24.8028 5.47412C23.3738 6.01955 22.1468 6.9907 21.2877 8.25623C20.4286 9.52176 19.9788 11.0206 19.9993 12.55V14.2167C17.0704 14.2926 14.1681 13.6431 11.551 12.3258C8.93392 11.0085 6.68321 9.06443 4.99935 6.6667C4.99935 6.6667 -1.66732 21.6667 13.3327 28.3334C9.90023 30.6633 5.81128 31.8316 1.66602 31.6667C16.666 40 34.9994 31.6667 34.9994 12.5C34.9978 12.0358 34.9532 11.5727 34.866 11.1167C36.567 9.43919 37.7674 7.32122 38.3327 5.00004Z" stroke="black" stroke-width="2" stroke-linecap="round" stroke-linejoin="round"/>
</svg>
